STARTFONT 2.1
COMMENT Exported by Fony v1.4.7
FONT CStadiumH
SIZE 18 100 100
FONTBOUNDINGBOX 14 17 0 -4
STARTPROPERTIES 6
COPYRIGHT "Public domain font.  Share and enjoy."
RESOLUTION_X 100
RESOLUTION_Y 100
FONT_ASCENT 14
FONT_DESCENT 4
DEFAULT_CHAR 0
ENDPROPERTIES
CHARS 256
STARTCHAR 000
ENCODING 0
SWIDTH 648 0
DWIDTH 9 0
BBX 7 10 1 0
BITMAP
DA
02
80
82
02
80
82
02
80
B6
ENDCHAR
STARTCHAR 001
ENCODING 1
SWIDTH 72 0
DWIDTH 1 0
BBX 0 0 0 0
BITMAP
ENDCHAR
STARTCHAR 002
ENCODING 2
SWIDTH 72 0
DWIDTH 1 0
BBX 0 0 0 0
BITMAP
ENDCHAR
STARTCHAR 003
ENCODING 3
SWIDTH 72 0
DWIDTH 1 0
BBX 0 0 0 0
BITMAP
ENDCHAR
STARTCHAR 004
ENCODING 4
SWIDTH 72 0
DWIDTH 1 0
BBX 0 0 0 0
BITMAP
ENDCHAR
STARTCHAR 005
ENCODING 5
SWIDTH 72 0
DWIDTH 1 0
BBX 0 0 0 0
BITMAP
ENDCHAR
STARTCHAR 006
ENCODING 6
SWIDTH 72 0
DWIDTH 1 0
BBX 0 0 0 0
BITMAP
ENDCHAR
STARTCHAR 007
ENCODING 7
SWIDTH 72 0
DWIDTH 1 0
BBX 0 0 0 0
BITMAP
ENDCHAR
STARTCHAR 008
ENCODING 8
SWIDTH 72 0
DWIDTH 1 0
BBX 0 0 0 0
BITMAP
ENDCHAR
STARTCHAR 009
ENCODING 9
SWIDTH 72 0
DWIDTH 1 0
BBX 0 0 0 0
BITMAP
ENDCHAR
STARTCHAR 010
ENCODING 10
SWIDTH 72 0
DWIDTH 1 0
BBX 0 0 0 0
BITMAP
ENDCHAR
STARTCHAR 011
ENCODING 11
SWIDTH 72 0
DWIDTH 1 0
BBX 0 0 0 0
BITMAP
ENDCHAR
STARTCHAR 012
ENCODING 12
SWIDTH 72 0
DWIDTH 1 0
BBX 0 0 0 0
BITMAP
ENDCHAR
STARTCHAR 013
ENCODING 13
SWIDTH 72 0
DWIDTH 1 0
BBX 0 0 0 0
BITMAP
ENDCHAR
STARTCHAR 014
ENCODING 14
SWIDTH 72 0
DWIDTH 1 0
BBX 0 0 0 0
BITMAP
ENDCHAR
STARTCHAR 015
ENCODING 15
SWIDTH 72 0
DWIDTH 1 0
BBX 0 0 0 0
BITMAP
ENDCHAR
STARTCHAR 016
ENCODING 16
SWIDTH 72 0
DWIDTH 1 0
BBX 0 0 0 0
BITMAP
ENDCHAR
STARTCHAR 017
ENCODING 17
SWIDTH 72 0
DWIDTH 1 0
BBX 0 0 0 0
BITMAP
ENDCHAR
STARTCHAR 018
ENCODING 18
SWIDTH 72 0
DWIDTH 1 0
BBX 0 0 0 0
BITMAP
ENDCHAR
STARTCHAR 019
ENCODING 19
SWIDTH 72 0
DWIDTH 1 0
BBX 0 0 0 0
BITMAP
ENDCHAR
STARTCHAR 020
ENCODING 20
SWIDTH 72 0
DWIDTH 1 0
BBX 0 0 0 0
BITMAP
ENDCHAR
STARTCHAR 021
ENCODING 21
SWIDTH 72 0
DWIDTH 1 0
BBX 0 0 0 0
BITMAP
ENDCHAR
STARTCHAR 022
ENCODING 22
SWIDTH 72 0
DWIDTH 1 0
BBX 0 0 0 0
BITMAP
ENDCHAR
STARTCHAR 023
ENCODING 23
SWIDTH 72 0
DWIDTH 1 0
BBX 0 0 0 0
BITMAP
ENDCHAR
STARTCHAR 024
ENCODING 24
SWIDTH 72 0
DWIDTH 1 0
BBX 0 0 0 0
BITMAP
ENDCHAR
STARTCHAR 025
ENCODING 25
SWIDTH 72 0
DWIDTH 1 0
BBX 0 0 0 0
BITMAP
ENDCHAR
STARTCHAR 026
ENCODING 26
SWIDTH 72 0
DWIDTH 1 0
BBX 0 0 0 0
BITMAP
ENDCHAR
STARTCHAR 027
ENCODING 27
SWIDTH 72 0
DWIDTH 1 0
BBX 0 0 0 0
BITMAP
ENDCHAR
STARTCHAR 028
ENCODING 28
SWIDTH 72 0
DWIDTH 1 0
BBX 0 0 0 0
BITMAP
ENDCHAR
STARTCHAR 029
ENCODING 29
SWIDTH 72 0
DWIDTH 1 0
BBX 0 0 0 0
BITMAP
ENDCHAR
STARTCHAR 030
ENCODING 30
SWIDTH 72 0
DWIDTH 1 0
BBX 0 0 0 0
BITMAP
ENDCHAR
STARTCHAR 031
ENCODING 31
SWIDTH 72 0
DWIDTH 1 0
BBX 0 0 0 0
BITMAP
ENDCHAR
STARTCHAR 032
ENCODING 32
SWIDTH 360 0
DWIDTH 5 0
BBX 0 0 0 0
BITMAP
ENDCHAR
STARTCHAR 033
ENCODING 33
SWIDTH 432 0
DWIDTH 6 0
BBX 6 14 0 0
BITMAP
3C
44
F4
94
94
94
94
94
94
9C
F4
94
98
F0
ENDCHAR
STARTCHAR 034
ENCODING 34
SWIDTH 432 0
DWIDTH 6 0
BBX 5 3 0 7
BITMAP
D8
D8
D8
ENDCHAR
STARTCHAR 035
ENCODING 35
SWIDTH 648 0
DWIDTH 9 0
BBX 8 10 0 0
BITMAP
66
66
FF
FF
66
66
FF
FF
66
66
ENDCHAR
STARTCHAR 036
ENCODING 36
SWIDTH 648 0
DWIDTH 9 0
BBX 8 12 0 -1
BITMAP
18
7E
FF
DB
D8
FE
7F
1B
DB
FF
7E
18
ENDCHAR
STARTCHAR 037
ENCODING 37
SWIDTH 792 0
DWIDTH 11 0
BBX 10 10 0 0
BITMAP
70C0
D9C0
DB80
7700
0E00
1C00
3B80
76C0
E6C0
C380
ENDCHAR
STARTCHAR 038
ENCODING 38
SWIDTH 648 0
DWIDTH 9 0
BBX 8 10 0 0
BITMAP
78
FC
CC
E0
73
7F
FE
CE
FF
7B
ENDCHAR
STARTCHAR 039
ENCODING 39
SWIDTH 432 0
DWIDTH 6 0
BBX 6 7 0 7
BITMAP
3C
44
F4
94
94
98
F0
ENDCHAR
STARTCHAR 040
ENCODING 40
SWIDTH 576 0
DWIDTH 8 0
BBX 8 14 0 0
BITMAP
0F
11
3D
45
86
9C
94
94
93
91
9D
85
46
3C
ENDCHAR
STARTCHAR 041
ENCODING 41
SWIDTH 576 0
DWIDTH 8 0
BBX 8 14 0 0
BITMAP
3C
42
F1
89
85
E5
25
25
25
25
E6
84
88
F0
ENDCHAR
STARTCHAR 042
ENCODING 42
SWIDTH 648 0
DWIDTH 9 0
BBX 8 8 0 2
BITMAP
DB
FF
7E
FF
FF
7E
FF
DB
ENDCHAR
STARTCHAR 043
ENCODING 43
SWIDTH 648 0
DWIDTH 9 0
BBX 8 8 0 1
BITMAP
18
18
18
FF
FF
18
18
18
ENDCHAR
STARTCHAR 044
ENCODING 44
SWIDTH 288 0
DWIDTH 4 0
BBX 3 5 0 -3
BITMAP
60
60
60
E0
C0
ENDCHAR
STARTCHAR 045
ENCODING 45
SWIDTH 720 0
DWIDTH 10 0
BBX 10 6 0 3
BITMAP
3FC0
4040
FF40
8140
8180
FF00
ENDCHAR
STARTCHAR 046
ENCODING 46
SWIDTH 432 0
DWIDTH 6 0
BBX 6 6 0 0
BITMAP
3C
44
F4
94
98
F0
ENDCHAR
STARTCHAR 047
ENCODING 47
SWIDTH 576 0
DWIDTH 8 0
BBX 8 14 0 0
BITMAP
0F
11
3D
25
26
26
4A
4A
4C
8C
94
94
98
F0
ENDCHAR
STARTCHAR 048
ENCODING 48
SWIDTH 792 0
DWIDTH 11 0
BBX 11 14 0 0
BITMAP
0F80
1040
3E20
4120
80A0
9CA0
94A0
94A0
94A0
94A0
9CC0
8080
4100
3E00
ENDCHAR
STARTCHAR 049
ENCODING 49
SWIDTH 576 0
DWIDTH 8 0
BBX 8 14 0 0
BITMAP
1E
22
7A
8A
8A
8A
CA
4A
4B
49
CD
85
86
FC
ENDCHAR
STARTCHAR 050
ENCODING 50
SWIDTH 792 0
DWIDTH 11 0
BBX 11 14 0 0
BITMAP
0F80
1040
3E20
4120
80A0
9CC0
F880
1100
23E0
4420
8FA0
80A0
80C0
FF80
ENDCHAR
STARTCHAR 051
ENCODING 51
SWIDTH 792 0
DWIDTH 11 0
BBX 11 14 0 0
BITMAP
0F80
1040
3E20
4120
80A0
9CC0
FCC0
3120
5120
FCA0
9CC0
8080
4100
3E00
ENDCHAR
STARTCHAR 052
ENCODING 52
SWIDTH 792 0
DWIDTH 11 0
BBX 11 14 0 0
BITMAP
3DE0
4A20
F7A0
94A0
94A0
94A0
9CA0
80A0
80A0
FCA0
04A0
04A0
04C0
0780
ENDCHAR
STARTCHAR 053
ENCODING 53
SWIDTH 792 0
DWIDTH 11 0
BBX 11 14 0 0
BITMAP
3FE0
4020
FFA0
80A0
80C0
9FA0
9E20
8120
80A0
7CA0
FCC0
8080
8100
FE00
ENDCHAR
STARTCHAR 054
ENCODING 54
SWIDTH 792 0
DWIDTH 11 0
BBX 11 14 0 0
BITMAP
0FC0
1040
3F40
4140
8180
9F40
9E20
8120
80A0
9CA0
9CC0
8080
4100
3E00
ENDCHAR
STARTCHAR 055
ENCODING 55
SWIDTH 720 0
DWIDTH 10 0
BBX 10 14 0 0
BITMAP
3FC0
4040
FF40
8140
8140
F980
1100
2200
4600
4A00
4A00
4A00
4C00
7800
ENDCHAR
STARTCHAR 056
ENCODING 56
SWIDTH 792 0
DWIDTH 11 0
BBX 11 14 0 0
BITMAP
0F80
1040
3E20
4120
80A0
9CC0
9CA0
4120
80A0
9CA0
9CC0
8080
4100
3E00
ENDCHAR
STARTCHAR 057
ENCODING 57
SWIDTH 792 0
DWIDTH 11 0
BBX 11 14 0 0
BITMAP
0F80
1040
3E20
4120
80A0
9CA0
9CA0
80A0
40A0
3CA0
7CC0
4080
4100
7E00
ENDCHAR
STARTCHAR 058
ENCODING 58
SWIDTH 432 0
DWIDTH 6 0
BBX 6 10 0 1
BITMAP
3C
44
F4
94
9C
FC
F4
94
98
F0
ENDCHAR
STARTCHAR 059
ENCODING 59
SWIDTH 288 0
DWIDTH 4 0
BBX 3 11 0 -3
BITMAP
60
60
00
00
00
00
60
60
60
E0
C0
ENDCHAR
STARTCHAR 060
ENCODING 60
SWIDTH 432 0
DWIDTH 6 0
BBX 5 8 0 1
BITMAP
18
38
70
E0
E0
70
38
18
ENDCHAR
STARTCHAR 061
ENCODING 61
SWIDTH 504 0
DWIDTH 7 0
BBX 6 6 0 2
BITMAP
FC
FC
00
00
FC
FC
ENDCHAR
STARTCHAR 062
ENCODING 62
SWIDTH 432 0
DWIDTH 6 0
BBX 5 8 0 1
BITMAP
C0
E0
70
38
38
70
E0
C0
ENDCHAR
STARTCHAR 063
ENCODING 63
SWIDTH 432 0
DWIDTH 6 0
BBX 5 10 0 0
BITMAP
F0
F8
18
38
70
60
60
00
60
60
ENDCHAR
STARTCHAR 064
ENCODING 64
SWIDTH 864 0
DWIDTH 12 0
BBX 11 10 0 0
BITMAP
3F80
7FC0
E0E0
CF60
DB60
DB60
CFC0
E000
7FE0
3FE0
ENDCHAR
STARTCHAR 065
ENCODING 65
SWIDTH 792 0
DWIDTH 11 0
BBX 11 14 0 0
BITMAP
0F80
1040
3E20
4120
80A0
9CA0
94A0
9CA0
80A0
80A0
9CA0
94A0
9CC0
F780
ENDCHAR
STARTCHAR 066
ENCODING 66
SWIDTH 792 0
DWIDTH 11 0
BBX 11 14 0 0
BITMAP
3F80
4040
FE20
8120
80A0
9CC0
98C0
8120
8120
98A0
9CC0
8080
8100
FE00
ENDCHAR
STARTCHAR 067
ENCODING 67
SWIDTH 792 0
DWIDTH 11 0
BBX 11 14 0 0
BITMAP
0F80
1040
3E20
4120
80A0
9CC0
9780
94E0
9720
93A0
9CC0
8080
4100
3E00
ENDCHAR
STARTCHAR 068
ENCODING 68
SWIDTH 792 0
DWIDTH 11 0
BBX 11 14 0 0
BITMAP
3F80
4040
FE20
8120
80A0
9CA0
94A0
94A0
94A0
94A0
9CC0
8080
8100
FE00
ENDCHAR
STARTCHAR 069
ENCODING 69
SWIDTH 792 0
DWIDTH 11 0
BBX 11 14 0 0
BITMAP
3FE0
4020
FFA0
80A0
80C0
9F80
9E80
8280
82E0
9E20
9FA0
80A0
80C0
FF80
ENDCHAR
STARTCHAR 070
ENCODING 70
SWIDTH 720 0
DWIDTH 10 0
BBX 10 14 0 0
BITMAP
3FC0
4040
FF40
8140
8180
9F00
9100
9D00
8500
8600
9C00
9400
9800
F000
ENDCHAR
STARTCHAR 071
ENCODING 71
SWIDTH 864 0
DWIDTH 12 0
BBX 12 14 0 0
BITMAP
0FF0
1010
3FD0
4060
8050
9FF0
97D0
9450
9450
9650
9E60
8040
4080
3F00
ENDCHAR
STARTCHAR 072
ENCODING 72
SWIDTH 792 0
DWIDTH 11 0
BBX 11 14 0 0
BITMAP
3DE0
4A20
F7A0
94A0
94A0
94A0
9CA0
80A0
80A0
9CA0
94A0
94A0
9CC0
F780
ENDCHAR
STARTCHAR 073
ENCODING 73
SWIDTH 576 0
DWIDTH 8 0
BBX 8 14 0 0
BITMAP
3F
41
FD
87
86
CE
4A
4A
4A
4B
CD
85
86
FC
ENDCHAR
STARTCHAR 074
ENCODING 74
SWIDTH 792 0
DWIDTH 11 0
BBX 11 14 0 0
BITMAP
01E0
0220
07A0
04A0
04A0
04A0
04A0
3CA0
44A0
F4A0
9CC0
8080
4100
3E00
ENDCHAR
STARTCHAR 075
ENCODING 75
SWIDTH 792 0
DWIDTH 11 0
BBX 11 14 0 0
BITMAP
3CE0
4520
F7A0
94C0
9880
9100
8300
8480
8440
8220
9120
98A0
9CC0
F380
ENDCHAR
STARTCHAR 076
ENCODING 76
SWIDTH 720 0
DWIDTH 10 0
BBX 10 14 0 0
BITMAP
3C00
4400
F400
9400
9400
9400
9400
9400
97C0
9040
9F40
8140
8180
FF00
ENDCHAR
STARTCHAR 077
ENCODING 77
SWIDTH 1008 0
DWIDTH 14 0
BBX 14 14 0 0
BITMAP
381C
4424
E274
9194
8914
8614
8014
9094
9994
9694
9494
9494
9898
F0F0
ENDCHAR
STARTCHAR 078
ENCODING 78
SWIDTH 792 0
DWIDTH 11 0
BBX 11 14 0 0
BITMAP
31E0
4A20
E7A0
94A0
94A0
8CA0
84A0
80A0
80A0
90A0
98A0
94A0
9CC0
F380
ENDCHAR
STARTCHAR 079
ENCODING 79
SWIDTH 792 0
DWIDTH 11 0
BBX 11 14 0 0
BITMAP
0F80
1040
3E20
4120
80A0
9CA0
94A0
94A0
94A0
94A0
9CC0
8080
4100
3E00
ENDCHAR
STARTCHAR 080
ENCODING 80
SWIDTH 792 0
DWIDTH 11 0
BBX 11 14 0 0
BITMAP
3F80
4040
FE20
8120
80A0
9CA0
94A0
9CC0
8080
8100
9E00
9400
9800
F000
ENDCHAR
STARTCHAR 081
ENCODING 81
SWIDTH 792 0
DWIDTH 11 0
BBX 11 14 0 0
BITMAP
0F80
1040
3E20
4120
80A0
9CA0
94A0
94A0
94C0
98A0
9120
80A0
44C0
3B80
ENDCHAR
STARTCHAR 082
ENCODING 82
SWIDTH 792 0
DWIDTH 11 0
BBX 11 14 0 0
BITMAP
3F80
4040
FE20
8120
80A0
9CA0
94A0
9CC0
80A0
8120
98A0
94A0
94C0
F780
ENDCHAR
STARTCHAR 083
ENCODING 83
SWIDTH 792 0
DWIDTH 11 0
BBX 11 14 0 0
BITMAP
0FC0
1020
3F20
40A0
80C0
9FC0
9E20
8120
40A0
7CA0
FCC0
8080
8100
7E00
ENDCHAR
STARTCHAR 084
ENCODING 84
SWIDTH 720 0
DWIDTH 10 0
BBX 10 14 0 0
BITMAP
3FC0
4040
FF40
8140
8180
E700
2500
2500
2500
2500
2500
2500
2600
3C00
ENDCHAR
STARTCHAR 085
ENCODING 85
SWIDTH 792 0
DWIDTH 11 0
BBX 11 14 0 0
BITMAP
3DE0
4620
F7A0
94A0
94A0
94A0
94A0
94A0
94A0
94A0
9CC0
8080
4100
3E00
ENDCHAR
STARTCHAR 086
ENCODING 86
SWIDTH 792 0
DWIDTH 11 0
BBX 11 14 0 0
BITMAP
3DE0
4A20
F7A0
94A0
94A0
94A0
94A0
94A0
94C0
8880
4100
2200
1400
0800
ENDCHAR
STARTCHAR 087
ENCODING 87
SWIDTH 1008 0
DWIDTH 14 0
BBX 14 14 0 0
BITMAP
3C3C
4444
F4F4
9494
9494
9594
9694
9994
9094
8014
8614
8914
9098
E070
ENDCHAR
STARTCHAR 088
ENCODING 88
SWIDTH 792 0
DWIDTH 11 0
BBX 11 14 0 0
BITMAP
3DE0
4A20
F7A0
94A0
94C0
8880
4180
2240
2220
4120
88A0
94A0
9CC0
F780
ENDCHAR
STARTCHAR 089
ENCODING 89
SWIDTH 864 0
DWIDTH 12 0
BBX 12 14 0 0
BITMAP
3CF0
4510
F7D0
9650
9650
9650
9260
8C40
4080
2180
1280
1280
1300
1E00
ENDCHAR
STARTCHAR 090
ENCODING 90
SWIDTH 792 0
DWIDTH 11 0
BBX 11 14 0 0
BITMAP
3FE0
4020
FFA0
80A0
80C0
F880
1100
2200
47E0
8820
9FA0
80A0
80C0
FF80
ENDCHAR
STARTCHAR 091
ENCODING 91
SWIDTH 288 0
DWIDTH 4 0
BBX 3 10 0 0
BITMAP
E0
E0
C0
C0
C0
C0
C0
C0
E0
E0
ENDCHAR
STARTCHAR 092
ENCODING 92
SWIDTH 360 0
DWIDTH 5 0
BBX 4 10 0 0
BITMAP
C0
C0
C0
E0
60
60
70
30
30
30
ENDCHAR
STARTCHAR 093
ENCODING 93
SWIDTH 288 0
DWIDTH 4 0
BBX 3 11 0 0
BITMAP
E0
E0
60
60
60
60
60
60
60
E0
E0
ENDCHAR
STARTCHAR 094
ENCODING 94
SWIDTH 576 0
DWIDTH 8 0
BBX 7 4 0 6
BITMAP
38
7C
EE
C6
ENDCHAR
STARTCHAR 095
ENCODING 95
SWIDTH 504 0
DWIDTH 7 0
BBX 6 2 0 -1
BITMAP
FC
FC
ENDCHAR
STARTCHAR 096
ENCODING 96
SWIDTH 360 0
DWIDTH 5 0
BBX 4 3 0 7
BITMAP
C0
60
30
ENDCHAR
STARTCHAR 097
ENCODING 97
SWIDTH 792 0
DWIDTH 11 0
BBX 11 14 0 0
BITMAP
0F80
1040
3E20
4120
80A0
9CA0
94A0
9CA0
80A0
80A0
9CA0
94A0
9CC0
F780
ENDCHAR
STARTCHAR 098
ENCODING 98
SWIDTH 792 0
DWIDTH 11 0
BBX 11 14 0 0
BITMAP
3F80
4040
FE20
8120
80A0
9CC0
98C0
8120
8120
98A0
9CC0
8080
8100
FE00
ENDCHAR
STARTCHAR 099
ENCODING 99
SWIDTH 792 0
DWIDTH 11 0
BBX 11 14 0 0
BITMAP
0F80
1040
3E20
4120
80A0
9CC0
9780
94E0
9320
93A0
9CC0
8080
4100
3E00
ENDCHAR
STARTCHAR 100
ENCODING 100
SWIDTH 792 0
DWIDTH 11 0
BBX 11 14 0 0
BITMAP
3F80
4040
FE20
8120
80A0
9CA0
94A0
94A0
94A0
94A0
9CC0
8080
8100
FE00
ENDCHAR
STARTCHAR 101
ENCODING 101
SWIDTH 792 0
DWIDTH 11 0
BBX 11 14 0 0
BITMAP
3FE0
4020
FFA0
80A0
80C0
9F80
9E80
8280
82E0
9E20
9FA0
80A0
80C0
FF80
ENDCHAR
STARTCHAR 102
ENCODING 102
SWIDTH 720 0
DWIDTH 10 0
BBX 10 14 0 0
BITMAP
3FC0
4040
FF40
8140
8180
9F00
9100
9D00
8500
8600
9C00
9400
9800
F000
ENDCHAR
STARTCHAR 103
ENCODING 103
SWIDTH 864 0
DWIDTH 12 0
BBX 12 14 0 0
BITMAP
0FF0
1010
3FD0
4060
8050
9FF0
97D0
9450
9450
9650
9E60
8040
4080
3F00
ENDCHAR
STARTCHAR 104
ENCODING 104
SWIDTH 792 0
DWIDTH 11 0
BBX 11 14 0 0
BITMAP
3DE0
4A20
F7A0
94A0
94A0
94A0
9CA0
80A0
80A0
9CA0
94A0
94A0
9CC0
F780
ENDCHAR
STARTCHAR 105
ENCODING 105
SWIDTH 576 0
DWIDTH 8 0
BBX 8 14 0 0
BITMAP
3F
41
FD
87
86
CE
4A
4A
4A
4B
CD
85
86
FC
ENDCHAR
STARTCHAR 106
ENCODING 106
SWIDTH 792 0
DWIDTH 11 0
BBX 11 14 0 0
BITMAP
01E0
0220
07A0
04A0
04A0
04A0
04A0
3CA0
44A0
F4A0
9CC0
8080
4100
3E00
ENDCHAR
STARTCHAR 107
ENCODING 107
SWIDTH 792 0
DWIDTH 11 0
BBX 11 14 0 0
BITMAP
3CE0
4520
F7A0
94C0
9880
9100
8300
8480
8440
8220
9120
98A0
9CC0
F380
ENDCHAR
STARTCHAR 108
ENCODING 108
SWIDTH 720 0
DWIDTH 10 0
BBX 10 14 0 0
BITMAP
3C00
4400
F400
9400
9400
9400
9400
9400
97C0
9040
9F40
8140
8180
FF00
ENDCHAR
STARTCHAR 109
ENCODING 109
SWIDTH 1008 0
DWIDTH 14 0
BBX 14 14 0 0
BITMAP
381C
4424
E274
9194
8914
8614
8014
9094
9994
9694
9494
9494
9898
F0F0
ENDCHAR
STARTCHAR 110
ENCODING 110
SWIDTH 792 0
DWIDTH 11 0
BBX 11 14 0 0
BITMAP
31E0
4A20
E7A0
94A0
94A0
8CA0
84A0
80A0
80A0
90A0
98A0
94A0
94C0
F380
ENDCHAR
STARTCHAR 111
ENCODING 111
SWIDTH 792 0
DWIDTH 11 0
BBX 11 14 0 0
BITMAP
0F80
1040
3E20
4120
80A0
9CA0
94A0
94A0
94A0
94A0
9CC0
8080
4100
3E00
ENDCHAR
STARTCHAR 112
ENCODING 112
SWIDTH 792 0
DWIDTH 11 0
BBX 11 14 0 0
BITMAP
3F80
4040
FE20
8120
80A0
9CA0
94A0
9CC0
8080
8100
9E00
9400
9800
F000
ENDCHAR
STARTCHAR 113
ENCODING 113
SWIDTH 792 0
DWIDTH 11 0
BBX 11 14 0 0
BITMAP
0F80
1040
3E20
4120
80A0
9CA0
94A0
94A0
94C0
98A0
9120
80A0
44C0
3B80
ENDCHAR
STARTCHAR 114
ENCODING 114
SWIDTH 792 0
DWIDTH 11 0
BBX 11 14 0 0
BITMAP
3F80
4040
FE20
8120
80A0
9CA0
94A0
9CC0
80A0
8120
98A0
94A0
94C0
F780
ENDCHAR
STARTCHAR 115
ENCODING 115
SWIDTH 792 0
DWIDTH 11 0
BBX 11 14 0 0
BITMAP
0FC0
1020
3F20
40A0
80C0
9FC0
9E20
8120
40A0
7CA0
FCC0
8080
8100
7E00
ENDCHAR
STARTCHAR 116
ENCODING 116
SWIDTH 720 0
DWIDTH 10 0
BBX 10 14 0 0
BITMAP
3FC0
4040
FF40
8140
8180
E700
2500
2500
2500
2500
2500
2500
2600
3C00
ENDCHAR
STARTCHAR 117
ENCODING 117
SWIDTH 792 0
DWIDTH 11 0
BBX 11 14 0 0
BITMAP
3DE0
4620
F7A0
94A0
94A0
94A0
94A0
94A0
94A0
94A0
9CC0
8080
4100
3E00
ENDCHAR
STARTCHAR 118
ENCODING 118
SWIDTH 792 0
DWIDTH 11 0
BBX 11 14 0 0
BITMAP
3DE0
4A20
F7A0
94A0
94A0
94A0
94A0
94A0
94C0
8880
4100
2200
1400
0800
ENDCHAR
STARTCHAR 119
ENCODING 119
SWIDTH 1008 0
DWIDTH 14 0
BBX 14 14 0 0
BITMAP
3C3C
4444
F4F4
9494
9494
9594
9694
9994
9094
8014
8614
8914
9098
E070
ENDCHAR
STARTCHAR 120
ENCODING 120
SWIDTH 792 0
DWIDTH 11 0
BBX 11 14 0 0
BITMAP
3DE0
4A20
F7A0
94A0
94C0
8880
4180
2240
2220
4120
88A0
94A0
94C0
F780
ENDCHAR
STARTCHAR 121
ENCODING 121
SWIDTH 864 0
DWIDTH 12 0
BBX 12 14 0 0
BITMAP
3CF0
4510
F7D0
9650
9650
9650
9260
8C40
4080
2180
1280
1280
1300
1E00
ENDCHAR
STARTCHAR 122
ENCODING 122
SWIDTH 792 0
DWIDTH 11 0
BBX 11 14 0 0
BITMAP
3FE0
4020
FFA0
80A0
80C0
F880
1100
2200
47E0
8820
9FA0
80A0
80C0
FF80
ENDCHAR
STARTCHAR 123
ENCODING 123
SWIDTH 432 0
DWIDTH 6 0
BBX 5 10 0 0
BITMAP
38
78
60
60
C0
C0
60
60
78
38
ENDCHAR
STARTCHAR 124
ENCODING 124
SWIDTH 216 0
DWIDTH 3 0
BBX 2 10 0 0
BITMAP
C0
C0
C0
C0
C0
C0
C0
C0
C0
C0
ENDCHAR
STARTCHAR 125
ENCODING 125
SWIDTH 432 0
DWIDTH 6 0
BBX 5 10 0 0
BITMAP
E0
F0
30
30
18
18
30
30
F0
E0
ENDCHAR
STARTCHAR 126
ENCODING 126
SWIDTH 648 0
DWIDTH 9 0
BBX 8 3 0 7
BITMAP
73
FF
CE
ENDCHAR
STARTCHAR 127
ENCODING 127
SWIDTH 72 0
DWIDTH 1 0
BBX 0 0 0 0
BITMAP
ENDCHAR
STARTCHAR 128
ENCODING 128
SWIDTH 72 0
DWIDTH 1 0
BBX 0 0 0 0
BITMAP
ENDCHAR
STARTCHAR 129
ENCODING 129
SWIDTH 72 0
DWIDTH 1 0
BBX 0 0 0 0
BITMAP
ENDCHAR
STARTCHAR 130
ENCODING 130
SWIDTH 72 0
DWIDTH 1 0
BBX 0 0 0 0
BITMAP
ENDCHAR
STARTCHAR 131
ENCODING 131
SWIDTH 72 0
DWIDTH 1 0
BBX 0 0 0 0
BITMAP
ENDCHAR
STARTCHAR 132
ENCODING 132
SWIDTH 72 0
DWIDTH 1 0
BBX 0 0 0 0
BITMAP
ENDCHAR
STARTCHAR 133
ENCODING 133
SWIDTH 72 0
DWIDTH 1 0
BBX 0 0 0 0
BITMAP
ENDCHAR
STARTCHAR 134
ENCODING 134
SWIDTH 72 0
DWIDTH 1 0
BBX 0 0 0 0
BITMAP
ENDCHAR
STARTCHAR 135
ENCODING 135
SWIDTH 72 0
DWIDTH 1 0
BBX 0 0 0 0
BITMAP
ENDCHAR
STARTCHAR 136
ENCODING 136
SWIDTH 72 0
DWIDTH 1 0
BBX 0 0 0 0
BITMAP
ENDCHAR
STARTCHAR 137
ENCODING 137
SWIDTH 72 0
DWIDTH 1 0
BBX 0 0 0 0
BITMAP
ENDCHAR
STARTCHAR 138
ENCODING 138
SWIDTH 72 0
DWIDTH 1 0
BBX 0 0 0 0
BITMAP
ENDCHAR
STARTCHAR 139
ENCODING 139
SWIDTH 72 0
DWIDTH 1 0
BBX 0 0 0 0
BITMAP
ENDCHAR
STARTCHAR 140
ENCODING 140
SWIDTH 72 0
DWIDTH 1 0
BBX 0 0 0 0
BITMAP
ENDCHAR
STARTCHAR 141
ENCODING 141
SWIDTH 72 0
DWIDTH 1 0
BBX 0 0 0 0
BITMAP
ENDCHAR
STARTCHAR 142
ENCODING 142
SWIDTH 72 0
DWIDTH 1 0
BBX 0 0 0 0
BITMAP
ENDCHAR
STARTCHAR 143
ENCODING 143
SWIDTH 72 0
DWIDTH 1 0
BBX 0 0 0 0
BITMAP
ENDCHAR
STARTCHAR 144
ENCODING 144
SWIDTH 72 0
DWIDTH 1 0
BBX 0 0 0 0
BITMAP
ENDCHAR
STARTCHAR 145
ENCODING 145
SWIDTH 72 0
DWIDTH 1 0
BBX 0 0 0 0
BITMAP
ENDCHAR
STARTCHAR 146
ENCODING 146
SWIDTH 72 0
DWIDTH 1 0
BBX 0 0 0 0
BITMAP
ENDCHAR
STARTCHAR 147
ENCODING 147
SWIDTH 72 0
DWIDTH 1 0
BBX 0 0 0 0
BITMAP
ENDCHAR
STARTCHAR 148
ENCODING 148
SWIDTH 72 0
DWIDTH 1 0
BBX 0 0 0 0
BITMAP
ENDCHAR
STARTCHAR 149
ENCODING 149
SWIDTH 72 0
DWIDTH 1 0
BBX 0 0 0 0
BITMAP
ENDCHAR
STARTCHAR 150
ENCODING 150
SWIDTH 72 0
DWIDTH 1 0
BBX 0 0 0 0
BITMAP
ENDCHAR
STARTCHAR 151
ENCODING 151
SWIDTH 72 0
DWIDTH 1 0
BBX 0 0 0 0
BITMAP
ENDCHAR
STARTCHAR 152
ENCODING 152
SWIDTH 72 0
DWIDTH 1 0
BBX 0 0 0 0
BITMAP
ENDCHAR
STARTCHAR 153
ENCODING 153
SWIDTH 72 0
DWIDTH 1 0
BBX 0 0 0 0
BITMAP
ENDCHAR
STARTCHAR 154
ENCODING 154
SWIDTH 72 0
DWIDTH 1 0
BBX 0 0 0 0
BITMAP
ENDCHAR
STARTCHAR 155
ENCODING 155
SWIDTH 72 0
DWIDTH 1 0
BBX 0 0 0 0
BITMAP
ENDCHAR
STARTCHAR 156
ENCODING 156
SWIDTH 72 0
DWIDTH 1 0
BBX 0 0 0 0
BITMAP
ENDCHAR
STARTCHAR 157
ENCODING 157
SWIDTH 72 0
DWIDTH 1 0
BBX 0 0 0 0
BITMAP
ENDCHAR
STARTCHAR 158
ENCODING 158
SWIDTH 72 0
DWIDTH 1 0
BBX 0 0 0 0
BITMAP
ENDCHAR
STARTCHAR 159
ENCODING 159
SWIDTH 72 0
DWIDTH 1 0
BBX 0 0 0 0
BITMAP
ENDCHAR
STARTCHAR 160
ENCODING 160
SWIDTH 648 0
DWIDTH 9 0
BBX 0 0 0 0
BITMAP
ENDCHAR
STARTCHAR 161
ENCODING 161
SWIDTH 216 0
DWIDTH 3 0
BBX 2 10 0 0
BITMAP
C0
C0
00
C0
C0
C0
C0
C0
C0
C0
ENDCHAR
STARTCHAR 162
ENCODING 162
SWIDTH 576 0
DWIDTH 8 0
BBX 7 9 0 -1
BITMAP
18
7E
FE
D8
D8
D8
FE
7E
18
ENDCHAR
STARTCHAR 163
ENCODING 163
SWIDTH 504 0
DWIDTH 7 0
BBX 6 10 0 0
BITMAP
3C
7C
60
60
F0
F0
60
E0
FC
FC
ENDCHAR
STARTCHAR 164
ENCODING 164
SWIDTH 648 0
DWIDTH 9 0
BBX 7 7 1 2
BITMAP
C6
FE
6C
44
6C
FE
C6
ENDCHAR
STARTCHAR 165
ENCODING 165
SWIDTH 504 0
DWIDTH 7 0
BBX 6 10 0 0
BITMAP
CC
CC
CC
FC
78
30
FC
30
FC
30
ENDCHAR
STARTCHAR 166
ENCODING 166
SWIDTH 648 0
DWIDTH 9 0
BBX 2 11 3 -1
BITMAP
C0
C0
C0
C0
C0
00
C0
C0
C0
C0
C0
ENDCHAR
STARTCHAR 167
ENCODING 167
SWIDTH 648 0
DWIDTH 9 0
BBX 6 11 1 -1
BITMAP
78
CC
C0
78
CC
CC
CC
78
0C
CC
78
ENDCHAR
STARTCHAR 168
ENCODING 168
SWIDTH 648 0
DWIDTH 9 0
BBX 5 2 2 11
BITMAP
D8
D8
ENDCHAR
STARTCHAR 169
ENCODING 169
SWIDTH 648 0
DWIDTH 9 0
BBX 8 11 0 0
BITMAP
3C
7E
C3
BD
A5
A1
A5
BD
C3
7E
3C
ENDCHAR
STARTCHAR 170
ENCODING 170
SWIDTH 648 0
DWIDTH 9 0
BBX 5 7 1 3
BITMAP
70
18
78
D8
78
00
F8
ENDCHAR
STARTCHAR 171
ENCODING 171
SWIDTH 648 0
DWIDTH 9 0
BBX 8 8 0 1
BITMAP
1B
36
6C
D8
D8
6C
36
1B
ENDCHAR
STARTCHAR 172
ENCODING 172
SWIDTH 648 0
DWIDTH 9 0
BBX 7 5 1 2
BITMAP
FE
FE
06
06
06
ENDCHAR
STARTCHAR 173
ENCODING 173
SWIDTH 648 0
DWIDTH 9 0
BBX 6 1 1 4
BITMAP
FC
ENDCHAR
STARTCHAR 174
ENCODING 174
SWIDTH 648 0
DWIDTH 9 0
BBX 8 11 0 0
BITMAP
3C
7E
C3
BD
A5
BD
A9
AD
C3
7E
3C
ENDCHAR
STARTCHAR 175
ENCODING 175
SWIDTH 648 0
DWIDTH 9 0
BBX 6 2 1 9
BITMAP
FC
FC
ENDCHAR
STARTCHAR 176
ENCODING 176
SWIDTH 648 0
DWIDTH 9 0
BBX 5 4 1 8
BITMAP
70
D8
D8
70
ENDCHAR
STARTCHAR 177
ENCODING 177
SWIDTH 648 0
DWIDTH 9 0
BBX 6 9 1 1
BITMAP
30
30
30
FC
30
30
30
00
FC
ENDCHAR
STARTCHAR 178
ENCODING 178
SWIDTH 648 0
DWIDTH 9 0
BBX 5 6 1 4
BITMAP
70
D8
18
30
60
F8
ENDCHAR
STARTCHAR 179
ENCODING 179
SWIDTH 648 0
DWIDTH 9 0
BBX 5 6 1 4
BITMAP
70
D8
30
18
D8
70
ENDCHAR
STARTCHAR 180
ENCODING 180
SWIDTH 648 0
DWIDTH 9 0
BBX 4 3 2 10
BITMAP
30
60
C0
ENDCHAR
STARTCHAR 181
ENCODING 181
SWIDTH 648 0
DWIDTH 9 0
BBX 7 9 1 -2
BITMAP
C6
C6
C6
C6
CE
DE
F6
C0
C0
ENDCHAR
STARTCHAR 182
ENCODING 182
SWIDTH 648 0
DWIDTH 9 0
BBX 7 10 1 0
BITMAP
7E
F6
F6
F6
76
36
36
36
36
36
ENDCHAR
STARTCHAR 183
ENCODING 183
SWIDTH 648 0
DWIDTH 9 0
BBX 3 2 3 4
BITMAP
E0
E0
ENDCHAR
STARTCHAR 184
ENCODING 184
SWIDTH 648 0
DWIDTH 9 0
BBX 6 3 1 -3
BITMAP
18
CC
78
ENDCHAR
STARTCHAR 185
ENCODING 185
SWIDTH 648 0
DWIDTH 9 0
BBX 4 6 1 4
BITMAP
60
E0
60
60
60
F0
ENDCHAR
STARTCHAR 186
ENCODING 186
SWIDTH 648 0
DWIDTH 9 0
BBX 5 7 1 3
BITMAP
70
D8
D8
D8
70
00
F8
ENDCHAR
STARTCHAR 187
ENCODING 187
SWIDTH 648 0
DWIDTH 9 0
BBX 8 8 0 1
BITMAP
D8
6C
36
1B
1B
36
6C
D8
ENDCHAR
STARTCHAR 188
ENCODING 188
SWIDTH 648 0
DWIDTH 9 0
BBX 8 11 0 0
BITMAP
60
E0
60
60
61
63
F7
0F
1B
1F
03
ENDCHAR
STARTCHAR 189
ENCODING 189
SWIDTH 648 0
DWIDTH 9 0
BBX 8 11 0 0
BITMAP
60
E0
60
60
6E
73
F3
06
0C
18
1F
ENDCHAR
STARTCHAR 190
ENCODING 190
SWIDTH 648 0
DWIDTH 9 0
BBX 8 11 0 0
BITMAP
70
98
18
30
19
9B
77
0F
1B
1F
03
ENDCHAR
STARTCHAR 191
ENCODING 191
SWIDTH 648 0
DWIDTH 9 0
BBX 7 10 1 0
BITMAP
18
18
00
18
30
60
C0
C6
C6
7C
ENDCHAR
STARTCHAR 192
ENCODING 192
SWIDTH 648 0
DWIDTH 9 0
BBX 7 14 1 0
BITMAP
60
30
18
00
10
38
38
38
6C
7C
6C
C6
C6
C6
ENDCHAR
STARTCHAR 193
ENCODING 193
SWIDTH 648 0
DWIDTH 9 0
BBX 7 14 1 0
BITMAP
0C
18
30
00
10
38
38
38
6C
7C
6C
C6
C6
C6
ENDCHAR
STARTCHAR 194
ENCODING 194
SWIDTH 648 0
DWIDTH 9 0
BBX 7 14 1 0
BITMAP
10
38
6C
00
10
38
38
38
6C
7C
6C
C6
C6
C6
ENDCHAR
STARTCHAR 195
ENCODING 195
SWIDTH 648 0
DWIDTH 9 0
BBX 7 13 1 0
BITMAP
76
DC
00
10
38
38
38
6C
7C
6C
C6
C6
C6
ENDCHAR
STARTCHAR 196
ENCODING 196
SWIDTH 648 0
DWIDTH 9 0
BBX 7 13 1 0
BITMAP
6C
6C
00
10
38
38
38
6C
7C
6C
C6
C6
C6
ENDCHAR
STARTCHAR 197
ENCODING 197
SWIDTH 648 0
DWIDTH 9 0
BBX 7 14 1 0
BITMAP
38
6C
6C
38
10
38
38
38
6C
7C
6C
C6
C6
C6
ENDCHAR
STARTCHAR 198
ENCODING 198
SWIDTH 648 0
DWIDTH 9 0
BBX 7 10 1 0
BITMAP
3E
3C
6C
6C
6E
FC
CC
CC
CC
CE
ENDCHAR
STARTCHAR 199
ENCODING 199
SWIDTH 648 0
DWIDTH 9 0
BBX 7 14 1 -4
BITMAP
3C
66
C0
C0
C0
C0
C0
C0
66
3C
18
0C
6C
38
ENDCHAR
STARTCHAR 200
ENCODING 200
SWIDTH 648 0
DWIDTH 9 0
BBX 7 14 1 0
BITMAP
60
30
18
00
FE
C0
C0
C0
F8
C0
C0
C0
C0
FE
ENDCHAR
STARTCHAR 201
ENCODING 201
SWIDTH 648 0
DWIDTH 9 0
BBX 7 14 1 0
BITMAP
0C
18
30
00
FE
C0
C0
C0
F8
C0
C0
C0
C0
FE
ENDCHAR
STARTCHAR 202
ENCODING 202
SWIDTH 648 0
DWIDTH 9 0
BBX 7 14 1 0
BITMAP
10
38
6C
00
FE
C0
C0
C0
F8
C0
C0
C0
C0
FE
ENDCHAR
STARTCHAR 203
ENCODING 203
SWIDTH 648 0
DWIDTH 9 0
BBX 7 13 1 0
BITMAP
6C
6C
00
FE
C0
C0
C0
F8
C0
C0
C0
C0
FE
ENDCHAR
STARTCHAR 204
ENCODING 204
SWIDTH 648 0
DWIDTH 9 0
BBX 6 14 1 0
BITMAP
60
30
18
00
FC
30
30
30
30
30
30
30
30
FC
ENDCHAR
STARTCHAR 205
ENCODING 205
SWIDTH 648 0
DWIDTH 9 0
BBX 6 14 1 0
BITMAP
0C
18
30
00
FC
30
30
30
30
30
30
30
30
FC
ENDCHAR
STARTCHAR 206
ENCODING 206
SWIDTH 648 0
DWIDTH 9 0
BBX 6 14 1 0
BITMAP
10
38
6C
00
FC
30
30
30
30
30
30
30
30
FC
ENDCHAR
STARTCHAR 207
ENCODING 207
SWIDTH 648 0
DWIDTH 9 0
BBX 6 13 1 0
BITMAP
6C
6C
00
FC
30
30
30
30
30
30
30
30
FC
ENDCHAR
STARTCHAR 208
ENCODING 208
SWIDTH 648 0
DWIDTH 9 0
BBX 8 10 0 0
BITMAP
7C
66
63
63
F3
63
63
63
66
7C
ENDCHAR
STARTCHAR 209
ENCODING 209
SWIDTH 648 0
DWIDTH 9 0
BBX 7 13 1 0
BITMAP
76
DC
00
C6
C6
E6
F6
DE
CE
C6
C6
C6
C6
ENDCHAR
STARTCHAR 210
ENCODING 210
SWIDTH 648 0
DWIDTH 9 0
BBX 7 14 1 0
BITMAP
60
30
18
00
7C
C6
C6
C6
C6
C6
C6
C6
C6
7C
ENDCHAR
STARTCHAR 211
ENCODING 211
SWIDTH 648 0
DWIDTH 9 0
BBX 7 14 1 0
BITMAP
0C
18
30
00
7C
C6
C6
C6
C6
C6
C6
C6
C6
7C
ENDCHAR
STARTCHAR 212
ENCODING 212
SWIDTH 648 0
DWIDTH 9 0
BBX 7 14 1 0
BITMAP
10
38
6C
00
7C
C6
C6
C6
C6
C6
C6
C6
C6
7C
ENDCHAR
STARTCHAR 213
ENCODING 213
SWIDTH 648 0
DWIDTH 9 0
BBX 7 13 1 0
BITMAP
76
DC
00
7C
C6
C6
C6
C6
C6
C6
C6
C6
7C
ENDCHAR
STARTCHAR 214
ENCODING 214
SWIDTH 648 0
DWIDTH 9 0
BBX 7 13 1 0
BITMAP
6C
6C
00
7C
C6
C6
C6
C6
C6
C6
C6
C6
7C
ENDCHAR
STARTCHAR 215
ENCODING 215
SWIDTH 648 0
DWIDTH 9 0
BBX 8 7 0 1
BITMAP
C3
66
3C
18
3C
66
C3
ENDCHAR
STARTCHAR 216
ENCODING 216
SWIDTH 648 0
DWIDTH 9 0
BBX 7 12 1 -1
BITMAP
06
7E
CE
CE
DE
DE
F6
F6
E6
E6
FC
C0
ENDCHAR
STARTCHAR 217
ENCODING 217
SWIDTH 648 0
DWIDTH 9 0
BBX 7 14 1 0
BITMAP
60
30
18
00
C6
C6
C6
C6
C6
C6
C6
C6
6C
38
ENDCHAR
STARTCHAR 218
ENCODING 218
SWIDTH 648 0
DWIDTH 9 0
BBX 7 14 1 0
BITMAP
0C
18
30
00
C6
C6
C6
C6
C6
C6
C6
C6
6C
38
ENDCHAR
STARTCHAR 219
ENCODING 219
SWIDTH 648 0
DWIDTH 9 0
BBX 7 14 1 0
BITMAP
10
38
6C
00
C6
C6
C6
C6
C6
C6
C6
C6
6C
38
ENDCHAR
STARTCHAR 220
ENCODING 220
SWIDTH 648 0
DWIDTH 9 0
BBX 7 13 1 0
BITMAP
6C
6C
00
C6
C6
C6
C6
C6
C6
C6
C6
6C
38
ENDCHAR
STARTCHAR 221
ENCODING 221
SWIDTH 648 0
DWIDTH 9 0
BBX 8 14 0 0
BITMAP
0C
18
30
00
C3
C3
66
3C
18
18
18
18
18
18
ENDCHAR
STARTCHAR 222
ENCODING 222
SWIDTH 648 0
DWIDTH 9 0
BBX 7 10 1 0
BITMAP
C0
C0
FC
C6
C6
C6
FC
C0
C0
C0
ENDCHAR
STARTCHAR 223
ENCODING 223
SWIDTH 648 0
DWIDTH 9 0
BBX 7 10 1 0
BITMAP
3C
66
66
66
EC
66
66
66
66
6C
ENDCHAR
STARTCHAR 224
ENCODING 224
SWIDTH 648 0
DWIDTH 9 0
BBX 7 11 1 0
BITMAP
60
30
18
00
7C
06
06
7E
C6
C6
7E
ENDCHAR
STARTCHAR 225
ENCODING 225
SWIDTH 648 0
DWIDTH 9 0
BBX 7 11 1 0
BITMAP
0C
18
30
00
7C
06
06
7E
C6
C6
7E
ENDCHAR
STARTCHAR 226
ENCODING 226
SWIDTH 648 0
DWIDTH 9 0
BBX 7 11 1 0
BITMAP
10
38
6C
00
7C
06
06
7E
C6
C6
7E
ENDCHAR
STARTCHAR 227
ENCODING 227
SWIDTH 648 0
DWIDTH 9 0
BBX 7 10 1 0
BITMAP
76
DC
00
7C
06
06
7E
C6
C6
7E
ENDCHAR
STARTCHAR 228
ENCODING 228
SWIDTH 648 0
DWIDTH 9 0
BBX 7 10 1 0
BITMAP
6C
6C
00
7C
06
06
7E
C6
C6
7E
ENDCHAR
STARTCHAR 229
ENCODING 229
SWIDTH 648 0
DWIDTH 9 0
BBX 7 11 1 0
BITMAP
38
6C
38
00
7C
06
06
7E
C6
C6
7E
ENDCHAR
STARTCHAR 230
ENCODING 230
SWIDTH 648 0
DWIDTH 9 0
BBX 8 7 0 0
BITMAP
76
1B
1B
7F
D8
DB
76
ENDCHAR
STARTCHAR 231
ENCODING 231
SWIDTH 648 0
DWIDTH 9 0
BBX 7 11 1 -4
BITMAP
7C
C6
C0
C0
C0
C6
7C
18
0C
6C
38
ENDCHAR
STARTCHAR 232
ENCODING 232
SWIDTH 648 0
DWIDTH 9 0
BBX 7 11 1 0
BITMAP
60
30
18
00
7C
C6
C6
FE
C0
C6
7C
ENDCHAR
STARTCHAR 233
ENCODING 233
SWIDTH 648 0
DWIDTH 9 0
BBX 7 11 1 0
BITMAP
0C
18
30
00
7C
C6
C6
FE
C0
C6
7C
ENDCHAR
STARTCHAR 234
ENCODING 234
SWIDTH 648 0
DWIDTH 9 0
BBX 7 11 1 0
BITMAP
10
38
6C
00
7C
C6
C6
FE
C0
C6
7C
ENDCHAR
STARTCHAR 235
ENCODING 235
SWIDTH 648 0
DWIDTH 9 0
BBX 7 10 1 0
BITMAP
6C
6C
00
7C
C6
C6
FE
C0
C6
7C
ENDCHAR
STARTCHAR 236
ENCODING 236
SWIDTH 648 0
DWIDTH 9 0
BBX 6 11 1 0
BITMAP
C0
60
30
00
F0
30
30
30
30
30
FC
ENDCHAR
STARTCHAR 237
ENCODING 237
SWIDTH 648 0
DWIDTH 9 0
BBX 6 11 1 0
BITMAP
0C
18
30
00
F0
30
30
30
30
30
FC
ENDCHAR
STARTCHAR 238
ENCODING 238
SWIDTH 648 0
DWIDTH 9 0
BBX 6 11 1 0
BITMAP
20
70
D8
00
F0
30
30
30
30
30
FC
ENDCHAR
STARTCHAR 239
ENCODING 239
SWIDTH 648 0
DWIDTH 9 0
BBX 6 10 1 0
BITMAP
6C
6C
00
F0
30
30
30
30
30
FC
ENDCHAR
STARTCHAR 240
ENCODING 240
SWIDTH 648 0
DWIDTH 9 0
BBX 7 11 1 0
BITMAP
6C
38
38
6C
0C
7E
C6
C6
C6
C6
7C
ENDCHAR
STARTCHAR 241
ENCODING 241
SWIDTH 648 0
DWIDTH 9 0
BBX 7 10 1 0
BITMAP
76
DC
00
DC
E6
C6
C6
C6
C6
C6
ENDCHAR
STARTCHAR 242
ENCODING 242
SWIDTH 648 0
DWIDTH 9 0
BBX 7 11 1 0
BITMAP
60
30
18
00
38
6C
C6
C6
C6
6C
38
ENDCHAR
STARTCHAR 243
ENCODING 243
SWIDTH 648 0
DWIDTH 9 0
BBX 7 11 1 0
BITMAP
0C
18
30
00
38
6C
C6
C6
C6
6C
38
ENDCHAR
STARTCHAR 244
ENCODING 244
SWIDTH 648 0
DWIDTH 9 0
BBX 7 11 1 0
BITMAP
10
38
6C
00
38
6C
C6
C6
C6
6C
38
ENDCHAR
STARTCHAR 245
ENCODING 245
SWIDTH 648 0
DWIDTH 9 0
BBX 7 10 1 0
BITMAP
76
DC
00
38
6C
C6
C6
C6
6C
38
ENDCHAR
STARTCHAR 246
ENCODING 246
SWIDTH 648 0
DWIDTH 9 0
BBX 7 10 1 0
BITMAP
6C
6C
00
38
6C
C6
C6
C6
6C
38
ENDCHAR
STARTCHAR 247
ENCODING 247
SWIDTH 648 0
DWIDTH 9 0
BBX 8 7 0 1
BITMAP
18
18
00
FF
00
18
18
ENDCHAR
STARTCHAR 248
ENCODING 248
SWIDTH 648 0
DWIDTH 9 0
BBX 8 9 0 -1
BITMAP
01
3F
66
CF
DB
F3
66
FC
80
ENDCHAR
STARTCHAR 249
ENCODING 249
SWIDTH 648 0
DWIDTH 9 0
BBX 7 11 1 0
BITMAP
60
30
18
00
C6
C6
C6
C6
C6
C6
7E
ENDCHAR
STARTCHAR 250
ENCODING 250
SWIDTH 648 0
DWIDTH 9 0
BBX 7 11 1 0
BITMAP
0C
18
30
00
C6
C6
C6
C6
C6
C6
7E
ENDCHAR
STARTCHAR 251
ENCODING 251
SWIDTH 648 0
DWIDTH 9 0
BBX 7 11 1 0
BITMAP
10
38
6C
00
C6
C6
C6
C6
C6
C6
7E
ENDCHAR
STARTCHAR 252
ENCODING 252
SWIDTH 648 0
DWIDTH 9 0
BBX 7 10 1 0
BITMAP
6C
6C
00
C6
C6
C6
C6
C6
C6
7E
ENDCHAR
STARTCHAR 253
ENCODING 253
SWIDTH 648 0
DWIDTH 9 0
BBX 7 14 1 -3
BITMAP
0C
18
30
00
C6
C6
6C
6C
6C
38
38
30
B0
60
ENDCHAR
STARTCHAR 254
ENCODING 254
SWIDTH 648 0
DWIDTH 9 0
BBX 7 11 1 -2
BITMAP
C0
C0
F8
CC
C6
C6
C6
CC
F8
C0
C0
ENDCHAR
STARTCHAR 255
ENCODING 255
SWIDTH 648 0
DWIDTH 9 0
BBX 7 13 1 -3
BITMAP
6C
6C
00
C6
C6
6C
6C
6C
38
38
30
B0
60
ENDCHAR
ENDFONT
